<svg xmlns="http://www.w3.org/2000/svg" viewBox="0 0 512 372.01"><title>beef</title><g id="Слой_2" data-name="Слой 2"><g id="Layer_1" data-name="Layer 1"><path d="M378,282.69c-31.15,8-68.24,12.06-110.23,12.06-55.25,0-106.39-7.12-147.87-20.57a8.68,8.68,0,1,0-5.36,16.52c43.19,14,96.18,21.42,153.23,21.42,43.45,0,82-4.24,114.55-12.6A8.69,8.69,0,1,0,378,282.69Z"/><path d="M406.76,2.24A8.69,8.69,0,1,0,402.17,19c23.12,6.33,46,22.89,62.76,45.42,13.55,18.21,29.69,49.1,29.69,92.9,0,52.33-27.26,90.51-81,113.47A8.69,8.69,0,0,0,417,287.47a8.57,8.57,0,0,0,3.41-.7c33.91-14.48,58.76-35.1,74-61-2.34,38.89-20.8,69.61-55,91.41-39,24.85-96.7,37.45-171.61,37.45-72.91,0-138.33-12.5-184.21-35.18-42.69-21.1-66.19-49.63-66.19-80.34v-9.86c11.39,15.49,28.21,29.55,49.91,41.43a8.69,8.69,0,0,0,8.34-15.24c-37.57-20.57-58.25-47.64-58.25-76.21,0-20.79,6-35.64,18-44.17,18-12.86,51.24-12.41,91.26,1.25,63.54,21.67,98.07-21.21,128.54-59l1.75-2.17c25.71-31.91,64.59-53,106.66-57.78a8.69,8.69,0,1,0-2-17.26C315,5.39,271.9,28.77,243.35,64.2l-1.75,2.17c-14.54,18-29.57,36.71-47.07,47.76-18.95,12-38.75,13.79-62.33,5.74-26.67-9.1-76-21.06-107,1.07C8.49,132.91,0,152.53,0,179.24v59.88C0,276.79,26.94,310.86,75.87,335s115.29,37,191.91,37c78.27,0,139.15-13.52,181-40.17,41.39-26.4,63.27-66,63.27-114.64V157.32C512,74.42,459.06,16.56,406.76,2.24Z"/><path d="M459.22,211.9A8.7,8.7,0,0,0,471,208.4c8-14.76,12-31.94,12-51.08,0-36.49-12.51-70.42-35.24-95.53-19-21-43.94-34-65.2-34-45.55,0-89.17,20.39-116.71,54.55l-1.74,2.16c-24.82,30.83-55.71,69.19-104.89,69.19a113.22,113.22,0,0,1-36.41-6.44c-19.19-6.55-37.1-10-51.79-10-13.92,0-24.37,3-31.06,8.86-7.32,6.44-11,17.58-11,33.11C29,199.5,41.72,219.11,65.87,236c23.67,16.5,57.32,29.49,97.32,37.56a9.3,9.3,0,0,0,1.73.17,8.69,8.69,0,0,0,1.71-17.21q-11.26-2.27-21.39-4.94l-11.89-32.21a8.69,8.69,0,0,0-16.3,6l7.37,20c-53.61-18.19-78.09-44.67-78.09-66.06,0-13.52,3.22-18.37,5.15-20.06,3.27-2.88,10.41-4.53,19.58-4.53a110.7,110.7,0,0,1,20.71,2.19l14.49,39.25a8.69,8.69,0,1,0,16.3-6l-10.33-28c1.66.52,3.32,1.06,5,1.63a130.2,130.2,0,0,0,42,7.38,107.8,107.8,0,0,0,40.9-7.88l37.59,101.83c-10.6-.53-21-1.34-31.05-2.44a8.69,8.69,0,0,0-1.87,17.28,586.47,586.47,0,0,0,62.95,3.28c71.64,0,128.83-12.32,165.38-35.64a8.69,8.69,0,0,0-9.34-14.65c-16.74,10.68-38.44,18.85-64.39,24.38l-18.09-49a8.69,8.69,0,1,0-16.3,6l17,46.21c-22.26,3.53-47.14,5.33-74.31,5.33-3.78,0-7.53-.05-11.27-.11l-40.7-110.23c25.83-15.28,45.12-39.22,61.88-60l1.73-2.16.67-.81,34.43,93.29a8.7,8.7,0,0,0,8.15,5.68,8.59,8.59,0,0,0,3-.54,8.68,8.68,0,0,0,5.14-11.15L293.48,78.56a134.36,134.36,0,0,1,75.45-32.67l13.95,37.8A8.71,8.71,0,0,0,391,89.37a8.82,8.82,0,0,0,3-.54,8.69,8.69,0,0,0,5.14-11.16L387.31,45.52c15.38,1.85,33.54,12.38,47.61,27.93,19.82,21.91,30.75,51.7,30.75,83.87,0,16.44-3.26,30.44-9.95,42.8A8.69,8.69,0,0,0,459.22,211.9Z"/><path d="M397.55,98.34a8.69,8.69,0,0,0-5.14,11.16l35.64,96.55a8.69,8.69,0,1,0,16.3-6l-35.64-96.55A8.69,8.69,0,0,0,397.55,98.34Z"/></g></g></svg>