<svg xmlns="http://www.w3.org/2000/svg" viewBox="0 0 96.82 96.82"><defs><style>.cls-1{fill:#131313;}</style></defs><title>Facebook</title><g id="Слой_2" data-name="Слой 2"><g id="Objects"><path class="cls-1" d="M48.41,96.82A48.41,48.41,0,1,1,96.82,48.41,48.47,48.47,0,0,1,48.41,96.82ZM48.41,2A46.41,46.41,0,1,0,94.82,48.41,46.46,46.46,0,0,0,48.41,2Z"/><path d="M48.41,7.73A40.68,40.68,0,1,0,89.09,48.41,40.68,40.68,0,0,0,48.41,7.73Zm12,24.68H54.7c-2,0-2.41.81-2.41,2.88v5h8.07L59.58,49H52.29V75.18H41.85v-26H36.42V40.27h5.43v-7c0-6.55,3.5-10,11.27-10h7.24Z"/></g></g></svg>