<svg xmlns="http://www.w3.org/2000/svg" viewBox="0 0 96.82 96.82"><defs><style>.cls-1{fill:#131313;}</style></defs><title>Insta</title><g id="Слой_2" data-name="Слой 2"><g id="Objects"><path class="cls-1" d="M48.41,96.82A48.41,48.41,0,1,1,96.82,48.41,48.47,48.47,0,0,1,48.41,96.82ZM48.41,2A46.41,46.41,0,1,0,94.82,48.41,46.46,46.46,0,0,0,48.41,2Z"/><path d="M48.41,7.73A40.68,40.68,0,1,0,89.09,48.41,40.68,40.68,0,0,0,48.41,7.73ZM71.83,59a17.51,17.51,0,0,1-1.09,5.71,12.13,12.13,0,0,1-6.88,6.88,17.51,17.51,0,0,1-5.71,1.09c-2.51.11-3.31.14-9.7.14s-7.19,0-9.7-.14A17.51,17.51,0,0,1,33,71.55a11.69,11.69,0,0,1-4.16-2.72,11.45,11.45,0,0,1-2.71-4.16A17.22,17.22,0,0,1,25.07,59c-.11-2.51-.14-3.31-.14-9.7s0-7.19.14-9.7a17.22,17.22,0,0,1,1.1-5.71A12,12,0,0,1,33,27a17.22,17.22,0,0,1,5.71-1.1c2.51-.11,3.31-.14,9.7-.14s7.19,0,9.7.14A17.22,17.22,0,0,1,63.86,27,11.45,11.45,0,0,1,68,29.69a11.69,11.69,0,0,1,2.72,4.16,17.51,17.51,0,0,1,1.09,5.71c.11,2.51.14,3.31.14,9.7S71.94,56.45,71.83,59Z"/><path d="M66.79,35.39A7.31,7.31,0,0,0,65,32.69a7.18,7.18,0,0,0-2.71-1.76A12.68,12.68,0,0,0,58,30.12C55.47,30,54.73,30,48.45,30s-7,0-9.5.14a12.68,12.68,0,0,0-4.37.81,7.81,7.81,0,0,0-4.46,4.46,12.68,12.68,0,0,0-.81,4.37c-.12,2.48-.14,3.22-.14,9.5s0,7,.14,9.5a12.68,12.68,0,0,0,.81,4.37,7.18,7.18,0,0,0,1.76,2.71,7.31,7.31,0,0,0,2.7,1.76,13.2,13.2,0,0,0,4.37.81c2.48.11,3.22.13,9.5.13s7,0,9.5-.13a13.2,13.2,0,0,0,4.37-.81,7.77,7.77,0,0,0,4.47-4.47,13.2,13.2,0,0,0,.81-4.37c.11-2.48.13-3.22.13-9.5s0-7-.13-9.5A13.2,13.2,0,0,0,66.79,35.39Zm-18.34,26A12.08,12.08,0,1,1,60.53,49.26,12.08,12.08,0,0,1,48.45,61.34ZM61,39.53a2.83,2.83,0,1,1,2.82-2.82A2.83,2.83,0,0,1,61,39.53Z"/><circle cx="48.45" cy="49.26" r="7.84" transform="translate(-20.64 48.69) rotate(-45)"/></g></g></svg>