<svg xmlns="http://www.w3.org/2000/svg" viewBox="0 0 512 512"><title>plate</title><g id="Слой_2" data-name="Слой 2"><g id="Layer_1" data-name="Layer 1"><path d="M442,253a10,10,0,0,0-10.41,9.66c-.05,1.43-.12,2.86-.21,4.28a10,10,0,0,0,9.4,10.64c.21,0,.42,0,.63,0a10,10,0,0,0,10-9.42q.15-2.37.24-4.77A10,10,0,0,0,442,253Z"/><path d="M496.66,168.36A10,10,0,0,0,491,154.25,256.11,256.11,0,1,0,21.91,359.89,30.11,30.11,0,0,0,51,409.36a258.39,258.39,0,0,0,64.16,60.47A30.12,30.12,0,0,0,165,500.69l3.86-3.86a256.29,256.29,0,0,0,327.8-328.47ZM256,20.08a235,235,0,0,1,44.6,4.27l-35.1,35.1c-3.93.34-7.57.79-9.5.79C148.06,60.24,60.24,148.06,60.24,256a195,195,0,0,0,8.48,57L37.31,344.43A234.4,234.4,0,0,1,20.08,256C20.08,125.91,125.91,20.08,256,20.08ZM220.62,135.16l.28,4.44A44.47,44.47,0,0,1,208,173.77L85.07,296.66A175.79,175.79,0,0,1,80.31,256c0-92.92,72.51-169.2,163.92-175.28l-4.83,4.83A64.53,64.53,0,0,0,220.62,135.16Zm-183.4,252a10,10,0,0,1,0-14.2L222.17,188a64.58,64.58,0,0,0,18.77-49.61l-.28-4.44a44.5,44.5,0,0,1,12.93-34.17L323.24,30.1a9.88,9.88,0,0,0,.81-.92L326,30.67q9.42,2.92,18.49,6.62L273.14,108.6a10,10,0,0,0,14.2,14.2L362.11,48a10,10,0,0,0,1.49-1.92q9.42,4.84,18.33,10.5l-5.62,5.62h0L301.53,137a10,10,0,1,0,14.2,14.19l82.94-82.94a237.4,237.4,0,0,1,71.85,89.64l-28.73,7.56a286.61,286.61,0,0,0-129.55,74.42l-41,41a39,39,0,0,0-11.32,30.44,18.84,18.84,0,0,1-5.49,14.76l-83.53,83.53a176.81,176.81,0,0,1-59.53-54l139.2-139.21a44.55,44.55,0,0,1,34.17-12.93l4.44.28a64.51,64.51,0,0,0,49.61-18.78l80.12-80.12a10,10,0,0,0-14.2-14.2l-80.12,80.12a44.46,44.46,0,0,1-34.17,12.94l-4.44-.28a64.55,64.55,0,0,0-49.61,18.77l-184.94,185A10.06,10.06,0,0,1,37.22,387.11Zm31,11.55L97,370a197.39,197.39,0,0,0,59.24,54.35l-29.13,29.13A237.85,237.85,0,0,1,68.26,398.66Zm68.34,87.83a10.06,10.06,0,0,1,0-14.2l132-132a39,39,0,0,0,11.32-30.44,18.84,18.84,0,0,1,5.49-14.76l41-41a266.38,266.38,0,0,1,120.46-69.2l7.5-2L150.8,486.49A10.05,10.05,0,0,1,136.6,486.49ZM256,491.92a234.92,234.92,0,0,1-71.23-11L217.7,448A196,196,0,0,0,433.45,338.65a10,10,0,1,0-18.19-8.5C386.42,391.83,323.91,431.69,256,431.69a175.61,175.61,0,0,1-20.76-1.24L480.92,184.77a235.28,235.28,0,0,1,11,71.23C491.92,386.09,386.09,491.92,256,491.92Z"/></g></g></svg>