<svg xmlns="http://www.w3.org/2000/svg" viewBox="0 0 293.7 288.54"><title>Weiter</title><g id="Слой_2" data-name="Слой 2"><g id="Слой_1-2" data-name="Слой 1"><path d="M68,111.91a5.65,5.65,0,0,0,1.57.21,6,6,0,0,0,5.79-4.43c11.14-41,45.82-48,47.3-48.31a6,6,0,0,0-2.16-11.8c-1.77.32-43.54,8.42-56.72,57A6,6,0,0,0,68,111.91Z"/><path d="M282,122.16H258.15A111.68,111.68,0,0,0,171.64,21.77a25,25,0,0,0-49.59,0,111.69,111.69,0,0,0-86.5,100.39H11.74A11.76,11.76,0,0,0,0,133.9v12.66A11.75,11.75,0,0,0,11.74,158.3H78.62c3.57,5,18.36,27,23.37,33.17,8.13,10,30.7,14.82,41.72,16.66l-8.33,73.73a6,6,0,0,0,5.28,6.64c.23,0,.46,0,.68,0a6,6,0,0,0,6-5.33l9-79.49a6,6,0,0,0-5.23-6.63c-13.38-1.64-34.56-6.82-39.78-13.21-4.64-5.69-16.3-23.08-18-25.58h13.45c3.3,3,10.86,9.62,19.7,16.25,6.29,4.71,32.65,4.13,46.46.16a6,6,0,0,0,3.31-2.42l9.42-14h11.74l-13.68,47.41a6,6,0,0,0-.23,1.78l1.46,75.16a6,6,0,0,0,6,5.88H191a6,6,0,0,0,5.88-6.11l-1.45-74.26,14.39-49.86H282a11.75,11.75,0,0,0,11.74-11.74V133.9A11.76,11.76,0,0,0,282,122.16ZM146.85,31a99,99,0,0,1,99.25,90.87H47.59A99,99,0,0,1,146.85,31Zm0-19a13,13,0,0,1,11.84,7.64,111.57,111.57,0,0,0-23.68,0A13,13,0,0,1,146.85,12Zm20.66,151.71c-12.47,3-30.49,2.42-34.17,1-2.91-2.18-5.67-4.37-8.18-6.43h46Zm114.19-17.4H12V134.16H281.7Z"/></g></g></svg>