<svg xmlns="http://www.w3.org/2000/svg" viewBox="0 0 198.4 358.4"><title>Wine</title><g id="Слой_2" data-name="Слой 2"><g id="Слой_1-2" data-name="Слой 1"><path d="M166.4,85.07V33.48A19.18,19.18,0,0,0,153.6,0H128a19.19,19.19,0,0,0-12.8,33.5V85.07A44.69,44.69,0,0,0,83.2,128v25.6a6.4,6.4,0,0,0,12.8,0V128a32.32,32.32,0,0,1,26.67-31.54,6.3,6.3,0,0,0,1.51-.46h33.24a6.3,6.3,0,0,0,1.51.46A32.33,32.33,0,0,1,185.6,128v25.6H140.8a6.41,6.41,0,0,0-6.4,6.4V281.6a6.41,6.41,0,0,0,6.4,6.4h44.8v57.6H96V267.2c0-.1,0-.2,0-.3A57.45,57.45,0,0,0,115.2,224c0-8.9-2.08-26.48-5.42-45.89a6.4,6.4,0,0,0-6.31-5.31H11.73a6.4,6.4,0,0,0-6.31,5.31C2.08,197.52,0,215.1,0,224a57.66,57.66,0,0,0,51.2,57.23V345.6H32a6.4,6.4,0,0,0,0,12.8H192a6.4,6.4,0,0,0,6.4-6.4V128a44.69,44.69,0,0,0-32-42.93Zm-32-46.67a6.4,6.4,0,1,0,0-12.8H128a6.4,6.4,0,0,1,0-12.8h25.6a6.39,6.39,0,0,1,3.18,11.94,6.42,6.42,0,0,0-3.12,6.42,5.73,5.73,0,0,0-.06.84V83.2H128V38.4ZM12.8,224c0-7.31,1.68-22,4.34-38.4H83.2v25.6H25.6a6.4,6.4,0,1,0,0,12.8h64a6.41,6.41,0,0,0,6.4-6.4v-32h2.06c2.66,16.38,4.34,31.09,4.34,38.4a44.8,44.8,0,1,1-89.6,0ZM64,281.23a56.93,56.93,0,0,0,19.2-5.65v70H64Zm83.2-6V166.4h38.4V275.2Z"/></g></g></svg>