<?xml version="1.0" encoding="UTF-8" standalone="no"?>
<!-- Created with Inkscape (http://www.inkscape.org/) -->

<svg
   xmlns:dc="http://purl.org/dc/elements/1.1/"
   xmlns:cc="http://creativecommons.org/ns#"
   xmlns:rdf="http://www.w3.org/1999/02/22-rdf-syntax-ns#"
   xmlns:svg="http://www.w3.org/2000/svg"
   xmlns="http://www.w3.org/2000/svg"
   xmlns:sodipodi="http://sodipodi.sourceforge.net/DTD/sodipodi-0.dtd"
   xmlns:inkscape="http://www.inkscape.org/namespaces/inkscape"
   width="210mm"
   height="297mm"
   viewBox="0 0 210 297"
   version="1.1"
   id="svg8"
   inkscape:version="0.92.1 r15371"
   sodipodi:docname="phone.svg">
  <defs
     id="defs2" />
  <sodipodi:namedview
     id="base"
     pagecolor="#ffffff"
     bordercolor="#666666"
     borderopacity="1.0"
     inkscape:pageopacity="0.0"
     inkscape:pageshadow="2"
     inkscape:zoom="1.4"
     inkscape:cx="527.82344"
     inkscape:cy="670.37526"
     inkscape:document-units="mm"
     inkscape:current-layer="layer1"
     showgrid="false"
     inkscape:window-width="1366"
     inkscape:window-height="705"
     inkscape:window-x="1358"
     inkscape:window-y="-8"
     inkscape:window-maximized="1" />
  <metadata
     id="metadata5">
    <rdf:RDF>
      <cc:Work
         rdf:about="">
        <dc:format>image/svg+xml</dc:format>
        <dc:type
           rdf:resource="http://purl.org/dc/dcmitype/StillImage" />
        <dc:title></dc:title>
      </cc:Work>
    </rdf:RDF>
  </metadata>
  <g
     inkscape:label="Layer 1"
     inkscape:groupmode="layer"
     id="layer1">
    <path
       style="fill:#6bfed2;stroke-width:0.26458332"
       d="m 69.584437,113.18011 c -0.187638,-0.21275 -0.560013,-0.38681 -0.827499,-0.38681 -0.267486,0 -0.634558,-0.17859 -0.815715,-0.39688 -0.181158,-0.21828 -0.468103,-0.39687 -0.637656,-0.39687 -0.785673,0 -3.860261,-3.87737 -3.860261,-4.86818 0,-0.24205 -0.178594,-0.50863 -0.396875,-0.59239 -0.317184,-0.12172 -0.396875,-0.69876 -0.396875,-2.87381 0,-2.17504 0.07969,-2.75209 0.396875,-2.8738 0.218281,-0.0838 0.396875,-0.38106 0.396875,-0.66066 0,-0.530541 1.950966,-3.314471 2.811082,-4.011281 0.887443,-0.71895 2.33181,-1.51052 3.075897,-1.68573 0.400182,-0.0942 0.727604,-0.28811 0.727604,-0.430859 0,-0.152364 1.092588,-0.259542 2.645838,-0.259542 1.4552,0 2.64583,0.08999 2.64583,0.199986 0,0.109992 0.62508,0.480715 1.38906,0.823835 1.38403,0.62158 4.16719,3.0467 4.16719,3.6311 0,0.16905 0.17859,0.45559 0.39687,0.63675 0.21829,0.18115 0.39688,0.54441 0.39688,0.80724 0,0.262831 0.17859,0.656471 0.39687,0.874751 0.29959,0.29959 0.39688,1.04213 0.39688,3.02921 0,2.01707 -0.0928,2.70932 -0.39688,2.96171 -0.21828,0.18116 -0.39687,0.49576 -0.39687,0.69912 0,0.52054 -1.22129,2.39437 -2.1562,3.30828 -0.99396,0.97162 -2.62289,2.00569 -3.51036,2.22844 -0.37589,0.0943 -0.68344,0.27768 -0.68344,0.40743 0,0.12974 -1.22039,0.23137 -2.71198,0.22584 -2.03757,-0.008 -2.796818,-0.10626 -3.05314,-0.39688 z m 6.821,-1.62265 c 1.44259,-0.76961 3.38106,-2.70637 4.03295,-4.02935 0.50971,-1.03446 0.59871,-1.63401 0.59302,-3.99523 -0.007,-2.73397 -0.0218,-2.8015 -0.9567,-4.249141 -0.94205,-1.45869 -2.15381,-2.55163 -3.92513,-3.54025 -1.44103,-0.80427 -5.51476,-0.75082 -7.24842,0.0951 -1.64596,0.80314 -3.353171,2.51035 -4.156306,4.15631 -0.844009,1.729731 -0.89915,5.804761 -0.09808,7.248421 1.375135,2.47824 3.400555,4.24058 5.498957,4.7847 1.400029,0.36303 5.237999,0.0745 6.259709,-0.47056 z m -2.51109,-2.71659 c -1.48947,-0.36422 -2.96875,-1.31152 -4.218287,-2.70131 -1.629027,-1.81187 -2.1869,-2.95118 -2.409805,-4.92139 -0.169983,-1.502451 -0.135446,-1.661431 0.498725,-2.295601 0.86907,-0.86907 1.581571,-0.86412 2.273706,0.0158 0.656111,0.83411 0.713391,2.244631 0.127456,3.138871 -0.398512,0.60821 -0.380587,0.70244 0.336782,1.77058 0.416733,0.6205 1.252453,1.46046 1.857163,1.86659 1.07732,0.72353 1.11793,0.72962 2.01504,0.30182 2.19639,-1.04739 4.68996,0.80399 3.21966,2.39047 -0.66596,0.71859 -1.93056,0.86697 -3.70044,0.43418 z"
       id="path3713"
       inkscape:connector-curvature="0" />
  </g>
</svg>
